<?xml version="1.0" standalone="no"?>
<!DOCTYPE svg PUBLIC "-//W3C//DTD SVG 20010904//EN"
 "http://www.w3.org/TR/2001/REC-SVG-20010904/DTD/svg10.dtd">
<svg version="1.0" xmlns="http://www.w3.org/2000/svg"
 width="512.000000pt" height="512.000000pt" viewBox="0 0 512.000000 512.000000"
 preserveAspectRatio="xMidYMid meet">
<metadata>
Created by potrace 1.14, written by Peter Selinger 2001-2017
</metadata>
<g transform="translate(0.000000,512.000000) scale(0.100000,-0.100000)"
fill="#000000" stroke="none">
<path d="M1983 4719 c-7 -7 -20 -13 -30 -14 -10 -1 -29 -7 -43 -15 -22 -11
-23 -11 -13 1 10 12 8 15 -6 15 -11 0 -17 -6 -14 -13 4 -9 0 -11 -11 -7 -10 4
-16 1 -16 -7 0 -11 -3 -11 -10 1 -6 9 -10 10 -10 3 0 -6 -8 -12 -17 -13 -55
-2 -71 -6 -65 -14 3 -5 -2 -7 -11 -3 -10 3 -17 2 -17 -3 0 -5 -7 -7 -15 -4 -8
4 -15 1 -15 -6 0 -10 -3 -10 -14 -1 -11 9 -16 9 -22 0 -5 -8 -3 -9 6 -4 9 5
11 4 6 -4 -4 -6 -12 -9 -17 -5 -5 3 -17 0 -25 -7 -8 -6 -17 -9 -21 -6 -3 4
-12 -1 -20 -11 -14 -16 -14 -16 -9 3 l6 20 -15 -20 c-9 -11 -18 -19 -20 -17
-13 6 -35 1 -30 -8 4 -6 -1 -7 -11 -3 -12 4 -15 3 -10 -5 5 -8 2 -10 -8 -6 -9
4 -16 1 -16 -6 0 -10 -4 -9 -16 0 -12 11 -15 11 -12 1 2 -8 -6 -15 -17 -17
-11 -1 -21 -8 -23 -14 -2 -5 -8 -7 -13 -4 -6 3 -18 -1 -27 -9 -9 -8 -25 -13
-34 -12 -12 2 -15 -2 -11 -13 4 -10 3 -14 -2 -10 -4 4 -14 3 -22 -3 -7 -6 -13
-9 -13 -5 0 3 -9 -3 -20 -14 -12 -12 -26 -17 -37 -13 -13 5 -15 3 -9 -12 4
-11 4 -16 0 -12 -4 4 -16 -1 -27 -10 -11 -10 -17 -12 -13 -5 4 6 2 12 -3 12
-6 0 -11 -7 -11 -15 0 -13 -18 -20 -42 -16 -4 0 -4 -7 -1 -16 4 -11 3 -14 -5
-9 -7 4 -12 2 -12 -3 0 -6 -6 -10 -12 -8 -7 1 -12 -4 -10 -11 1 -8 -2 -11 -7
-8 -5 4 -15 0 -23 -7 -23 -22 -73 -52 -82 -49 -5 2 -3 -5 5 -14 9 -12 9 -15 2
-10 -8 4 -13 2 -13 -5 0 -8 -4 -8 -16 1 -8 8 -14 9 -13 4 3 -20 -1 -35 -10
-30 -5 3 -11 -1 -15 -9 -3 -8 -13 -15 -21 -15 -9 0 -13 -5 -10 -10 3 -6 -4
-14 -17 -19 -13 -4 -23 -12 -23 -17 0 -5 -3 -8 -7 -7 -3 1 -12 -5 -20 -14 -9
-12 -9 -15 0 -9 6 4 12 5 12 1 0 -3 -12 -10 -26 -15 -14 -6 -23 -14 -20 -19 3
-5 -2 -15 -11 -22 -14 -12 -16 -12 -8 1 8 13 6 13 -8 2 -9 -8 -15 -17 -14 -20
1 -4 -2 -8 -8 -9 -5 -1 -13 -11 -17 -23 -5 -13 -13 -18 -19 -14 -8 4 -9 3 -5
-4 4 -7 3 -12 -2 -12 -5 0 -15 -11 -22 -25 -7 -13 -18 -21 -23 -18 -6 4 -8 0
-4 -10 6 -16 -4 -22 -27 -18 -5 1 -3 -6 4 -16 8 -10 11 -15 6 -11 -10 9 -56
-45 -56 -65 0 -9 -4 -19 -10 -22 -6 -3 -8 2 -5 12 3 10 -1 6 -8 -10 -7 -15
-15 -26 -18 -25 -2 2 -3 1 -2 -1 5 -8 -28 -61 -37 -61 -6 0 -9 -6 -8 -12 2 -7
-2 -12 -9 -11 -6 1 -10 -5 -9 -15 2 -9 -5 -23 -15 -30 -10 -7 -16 -18 -13 -25
2 -7 -5 -23 -16 -35 -11 -12 -17 -22 -13 -22 4 0 -2 -7 -13 -16 -10 -8 -13
-12 -6 -9 11 6 12 3 3 -13 -6 -11 -16 -23 -23 -25 -10 -4 -10 -6 0 -6 10 -1
10 -5 -2 -17 -9 -8 -14 -20 -11 -25 4 -5 1 -9 -6 -9 -7 0 -9 -3 -6 -7 4 -3 -1
-12 -11 -20 -10 -9 -11 -11 -2 -7 13 7 13 5 1 -9 -7 -9 -10 -17 -5 -17 5 0 1
-5 -9 -11 -10 -6 -17 -22 -17 -40 0 -19 -4 -28 -11 -23 -8 4 -8 0 0 -15 9 -17
9 -20 -3 -15 -8 3 -13 -2 -13 -13 0 -36 -3 -44 -14 -37 -7 4 -7 -1 1 -16 7
-12 8 -20 2 -16 -5 3 -12 -1 -16 -9 -3 -8 0 -15 7 -15 8 0 8 -3 -2 -9 -8 -5
-11 -16 -8 -26 4 -9 3 -14 -2 -11 -10 6 -24 -31 -21 -53 1 -8 -4 -18 -12 -22
-11 -7 -11 -9 1 -9 11 0 11 -3 0 -17 -12 -15 -12 -16 1 -8 13 8 13 7 1 -9 -13
-15 -13 -19 0 -27 10 -8 7 -8 -11 -3 -22 6 -23 5 -11 -10 9 -10 10 -20 4 -28
-5 -7 -8 -25 -7 -41 2 -18 -1 -25 -8 -21 -6 4 -8 3 -5 -3 3 -5 8 -21 11 -36 4
-21 1 -25 -12 -20 -15 6 -16 5 -2 -12 9 -11 10 -16 2 -11 -6 4 -12 2 -12 -3 0
-6 6 -11 13 -11 8 0 7 -4 -3 -10 -13 -9 -13 -10 0 -10 11 0 12 -2 3 -8 -17
-11 -17 -392 0 -392 7 0 6 -4 -3 -10 -13 -9 -13 -10 0 -10 13 0 13 -1 0 -10
-12 -8 -12 -10 -1 -10 11 0 11 -3 0 -17 -10 -11 -10 -14 -1 -9 13 8 16 -5 14
-62 -1 -21 3 -30 9 -26 8 4 8 0 0 -14 -8 -16 -6 -25 9 -45 13 -16 16 -28 10
-32 -6 -4 -7 -12 -3 -18 8 -13 12 -37 15 -79 1 -16 6 -28 11 -28 5 0 7 -13 5
-29 -2 -17 -2 -30 1 -29 19 2 22 -4 10 -19 -8 -9 -9 -14 -4 -11 6 4 17 -2 24
-14 9 -14 9 -18 1 -13 -16 10 -2 -37 14 -47 8 -5 7 -8 -2 -8 -7 0 -10 -5 -7
-10 4 -6 11 -8 16 -5 5 4 9 -4 9 -17 0 -13 4 -28 10 -34 5 -5 11 -22 12 -36 1
-15 5 -25 9 -23 3 3 11 -7 18 -21 9 -20 9 -24 -1 -18 -7 4 -5 -2 5 -13 14 -16
15 -22 5 -26 -9 -4 -7 -6 4 -6 9 -1 20 -6 24 -13 4 -6 3 -8 -4 -5 -6 5 -8 0
-5 -13 3 -11 12 -20 20 -20 8 0 11 -4 8 -10 -3 -5 -1 -10 6 -10 8 0 8 -4 -1
-16 -11 -12 -11 -15 1 -12 9 2 13 -4 11 -15 -2 -10 2 -16 10 -15 6 2 17 -12
23 -30 6 -18 14 -29 18 -26 4 4 7 -3 7 -15 0 -12 7 -24 16 -28 8 -3 13 -12 10
-19 -3 -8 0 -13 7 -11 7 1 11 -6 9 -16 -2 -9 1 -17 5 -16 26 4 35 -1 24 -15
-10 -11 -8 -16 9 -21 11 -3 18 -11 15 -16 -4 -5 -1 -9 5 -9 6 0 8 -4 5 -10 -3
-5 1 -10 9 -10 8 0 18 -5 22 -12 4 -7 3 -8 -4 -4 -7 4 -12 3 -12 -3 0 -5 9
-12 20 -16 11 -3 19 -9 17 -13 -1 -4 7 -17 18 -28 60 -65 75 -86 68 -97 -4 -7
2 -5 12 3 13 10 16 11 11 2 -9 -15 23 -44 38 -35 5 4 6 1 2 -6 -9 -13 18 -43
29 -33 5 4 5 -1 2 -10 -4 -12 -2 -15 9 -11 8 3 14 -1 14 -10 0 -17 59 -67 79
-67 7 0 9 -5 6 -10 -3 -6 0 -10 8 -10 8 0 21 -8 28 -17 12 -14 12 -16 -1 -9
-8 4 -4 -1 10 -12 13 -11 28 -18 32 -16 5 3 11 -2 14 -10 3 -9 12 -16 20 -16
8 0 14 -4 14 -10 0 -5 7 -10 15 -10 8 0 15 -5 15 -11 0 -5 5 -7 12 -3 8 5 9 2
5 -10 -4 -9 -3 -15 1 -13 13 8 54 -12 47 -23 -4 -6 -3 -10 2 -9 14 4 48 -15
65 -36 10 -11 17 -16 18 -11 0 5 10 1 22 -10 22 -19 23 -19 8 1 -8 11 1 7 19
-10 19 -16 31 -23 27 -15 -4 8 -1 7 8 -4 8 -10 19 -15 25 -11 6 3 11 1 11 -5
0 -13 49 -34 73 -31 10 1 17 -4 17 -14 0 -11 5 -15 15 -11 17 6 65 -13 65 -26
0 -4 12 -8 26 -8 17 0 23 -4 18 -13 -5 -7 0 -6 11 3 11 9 16 10 11 2 -6 -11 5
-17 27 -13 4 0 7 -4 7 -9 0 -6 5 -10 11 -10 5 0 7 6 3 12 -4 7 6 2 22 -12 15
-14 22 -17 15 -7 -12 15 -12 17 3 11 9 -3 16 -9 16 -13 0 -4 15 -8 33 -9 17
-2 34 -7 35 -12 2 -6 19 -10 37 -10 18 0 36 -6 38 -12 4 -10 6 -10 6 0 1 19
21 14 22 -5 0 -15 2 -15 9 2 l9 20 0 -20 c1 -17 3 -17 11 -5 8 12 10 12 11 -5
0 -11 3 -14 6 -7 5 14 33 17 33 3 0 -11 19 -9 39 3 11 7 13 5 9 -5 -4 -10 1
-15 13 -15 11 0 19 7 19 16 0 13 2 13 9 0 6 -8 8 -17 6 -20 -2 -4 2 -7 10 -7
8 0 12 4 9 9 -3 4 0 8 5 8 6 0 11 -4 11 -10 0 -14 27 -12 33 3 4 9 6 9 6 0 1
-7 6 -13 12 -13 5 0 7 6 3 12 -6 10 -4 11 7 1 18 -18 334 -19 323 -1 -5 7 -3
8 7 2 19 -11 51 -16 45 -6 -2 4 5 9 17 9 17 2 18 0 7 -7 -11 -7 -10 -9 8 -7
13 1 21 6 18 14 -3 8 1 10 11 6 12 -5 14 -3 8 8 -6 11 -5 12 6 1 18 -16 63
-16 53 1 -6 9 -4 9 8 -1 10 -8 19 -9 22 -4 3 6 24 9 45 8 31 -1 37 2 28 12 -8
10 -7 12 4 10 8 -2 17 -7 21 -13 5 -6 8 -6 8 2 0 6 13 10 30 9 17 -1 30 1 30
6 0 4 6 7 13 5 6 -1 11 5 9 13 -1 10 2 9 13 -4 14 -18 15 -18 15 -2 0 13 5 16
20 11 11 -4 20 -2 20 4 0 6 11 11 24 11 14 0 28 5 31 11 4 6 14 8 22 5 9 -4
22 2 30 11 9 12 12 13 8 3 -6 -13 -5 -13 7 0 7 8 24 14 37 12 15 -2 21 0 17 7
-4 7 1 11 13 11 11 0 23 5 27 11 4 8 9 7 15 -2 7 -11 9 -10 9 3 0 12 5 15 17
11 11 -4 14 -3 9 5 -5 8 0 12 14 12 12 0 28 7 37 16 9 8 21 13 28 10 8 -3 16
2 19 10 3 9 10 12 16 9 5 -3 10 -1 10 6 0 7 3 10 6 6 4 -3 13 1 21 9 8 8 18
12 22 9 5 -2 19 6 32 18 13 12 27 21 31 20 4 -2 12 6 18 17 11 21 36 29 25 8
-4 -7 1 -4 10 7 9 11 21 19 26 18 5 -2 9 4 9 12 0 8 3 14 8 14 4 -1 16 -1 27
0 17 1 18 3 5 11 -13 9 -7 14 13 11 4 0 7 4 7 11 0 6 3 8 7 5 3 -4 13 2 21 14
8 11 20 18 28 15 9 -3 11 0 7 11 -4 10 -2 14 4 10 6 -4 13 0 17 8 3 8 13 15
21 15 9 0 13 5 10 10 -3 6 4 10 15 10 16 0 20 4 16 16 -3 8 -2 12 4 9 6 -3 10
1 10 9 0 9 5 16 11 16 5 0 7 -6 3 -12 -6 -9 -3 -9 9 0 9 8 15 19 14 25 -1 7 6
11 15 11 10 -1 15 2 12 7 -3 5 0 9 6 9 6 0 8 5 5 10 -3 6 -1 10 5 10 17 0 62
49 55 60 -4 6 -3 10 2 9 14 -4 43 13 38 21 -3 5 4 15 15 23 11 7 17 17 13 20
-3 4 1 7 10 7 9 0 16 6 14 13 -1 6 4 11 11 9 8 -1 11 2 7 8 -3 5 8 23 25 40
17 16 35 41 40 55 6 15 14 24 19 20 6 -3 8 4 6 16 -4 17 -2 19 11 8 12 -10 13
-9 8 5 -3 9 -1 16 5 16 6 0 8 8 4 18 -3 9 -3 14 2 10 10 -10 48 39 40 52 -3 5
-2 10 4 10 5 0 15 16 21 35 6 19 16 33 21 30 5 -4 9 1 9 9 0 9 5 16 11 16 8 0
7 5 -1 15 -7 9 -10 18 -6 22 3 3 6 1 6 -6 0 -7 5 -9 10 -6 6 4 8 11 5 16 -4 5
-1 9 5 9 6 0 9 4 5 9 -3 5 -1 12 5 16 6 4 7 11 4 17 -5 7 -2 9 8 6 10 -4 15 0
15 10 0 47 3 54 19 48 14 -5 15 -4 4 9 -8 10 -9 15 -1 15 6 0 10 3 10 8 -4 24
2 42 13 36 8 -5 9 -2 5 9 -3 9 -2 19 4 23 6 3 8 12 5 20 -3 8 1 14 9 14 9 0
12 6 8 17 -5 12 -3 14 8 8 11 -6 11 -5 2 5 -14 15 4 63 21 53 6 -3 6 0 -1 7
-10 11 -9 16 5 27 9 8 11 12 5 8 -8 -4 -13 0 -13 9 0 9 6 16 13 16 9 0 9 2 -1
9 -11 7 -11 9 2 14 9 4 16 11 16 17 0 6 -5 8 -11 4 -6 -3 -3 5 6 20 10 15 15
29 11 33 -3 4 1 17 10 31 9 13 11 21 5 18 -6 -4 -11 -2 -11 3 0 6 5 11 11 11
8 0 8 4 2 13 -12 15 9 61 23 49 4 -4 2 1 -5 11 -10 13 -11 20 -2 30 6 8 8 17
4 21 -4 3 -7 15 -8 26 -1 16 1 18 13 7 13 -10 14 -9 4 10 -10 18 -9 24 5 33
14 9 14 10 2 7 -9 -3 -16 1 -16 9 0 7 4 11 9 8 4 -3 9 2 9 10 1 9 2 22 3 29 1
6 -1 17 -4 22 -8 13 -7 27 4 44 7 11 6 12 -5 6 -12 -8 -12 -6 0 8 7 9 9 17 4
17 -5 0 -10 7 -10 15 0 8 4 12 8 9 4 -2 7 5 6 16 -1 11 -5 20 -9 20 -5 0 -4 9
2 19 7 14 7 22 0 26 -7 4 -7 12 -2 18 7 10 9 32 2 40 -9 10 -4 47 7 51 8 3 11
1 8 -4 -7 -11 36 -7 55 5 5 3 10 1 10 -5 0 -6 5 -8 13 -3 18 11 37 12 37 2 0
-6 7 -6 18 0 26 14 34 14 42 1 5 -8 13 -9 21 -4 20 12 39 14 39 3 0 -6 4 -7
10 -4 16 10 50 14 50 7 0 -10 42 -8 58 2 7 4 12 2 12 -4 0 -6 5 -8 12 -4 17
11 58 11 58 1 0 -4 9 -3 19 3 14 7 21 6 24 -3 4 -9 6 -9 6 1 1 7 5 11 10 7 5
-3 13 0 17 6 4 8 3 9 -4 5 -7 -4 -12 -2 -12 3 0 6 -7 11 -15 11 -8 0 -14 3
-12 8 1 4 -3 8 -8 10 -17 6 -45 34 -45 46 0 7 -9 18 -19 26 -11 7 -17 18 -14
23 3 6 1 7 -6 3 -6 -4 -14 -1 -17 8 -3 8 -14 18 -25 21 -11 4 -17 10 -14 15 7
11 -20 31 -30 22 -5 -4 -5 -2 -1 5 3 7 -2 14 -13 18 -13 4 -18 11 -14 22 4 10
2 14 -4 10 -6 -4 -14 0 -17 9 -3 9 -11 12 -18 8 -8 -5 -9 -2 -5 9 4 12 2 14
-10 10 -10 -4 -14 -2 -10 4 7 12 -16 36 -26 28 -4 -3 -5 -2 -3 1 2 3 -9 18
-25 33 -16 15 -25 31 -21 35 4 4 0 6 -8 4 -8 -1 -14 2 -13 9 2 8 -4 10 -15 6
-9 -3 -14 -3 -10 2 10 10 -11 37 -23 29 -5 -3 -6 3 -2 13 3 10 3 15 -2 11 -4
-4 -21 7 -38 25 -16 18 -34 31 -38 30 -5 -2 -5 5 -2 15 3 9 3 14 -2 10 -10 -9
-47 31 -40 43 3 4 -3 6 -15 4 -11 -2 -19 1 -17 8 1 7 -3 11 -10 10 -7 -2 -10
4 -7 12 4 9 0 15 -10 15 -9 0 -16 8 -16 17 0 9 -3 14 -6 10 -8 -7 -54 38 -54
53 0 6 -8 10 -17 8 -12 -2 -17 3 -15 15 2 10 -3 17 -13 17 -9 0 -13 5 -10 10
3 6 1 10 -5 10 -12 0 -40 24 -40 34 0 3 -17 23 -37 43 -20 21 -33 31 -29 23 4
-8 0 -6 -8 4 -9 11 -16 24 -16 29 0 4 -5 5 -10 2 -5 -3 -10 -1 -10 5 0 6 -5 8
-12 4 -7 -4 -8 -3 -4 5 8 13 -28 51 -48 51 -6 0 -4 5 4 10 12 8 11 10 -7 10
-13 0 -23 5 -23 11 0 15 -26 39 -34 32 -3 -4 -6 0 -6 8 0 8 -8 23 -17 34 l-16
20 7 -20 6 -20 -15 20 c-9 11 -23 29 -33 40 -9 11 -15 24 -14 29 2 5 -4 6 -13
3 -9 -4 -15 -1 -15 8 0 8 -7 15 -15 15 -8 0 -15 4 -15 9 0 4 -12 21 -27 36
-16 16 -22 25 -14 20 10 -5 12 -4 7 3 -4 7 -16 12 -27 12 -11 0 -18 3 -16 8 5
9 -50 62 -57 54 -3 -3 -6 1 -6 9 0 15 -69 85 -83 84 -13 0 -36 48 -29 60 3 5
-3 3 -13 -5 -17 -14 -18 -13 -13 6 4 17 1 21 -16 20 -11 -1 -21 5 -22 12 -1 6
-2 17 -3 23 0 5 -5 7 -11 4 -5 -3 -10 1 -10 9 0 9 -4 16 -10 16 -13 0 -59 48
-52 54 3 3 0 6 -7 6 -16 0 -42 26 -34 34 4 3 -1 6 -11 6 -9 0 -14 5 -11 10 3
6 -1 10 -10 10 -9 0 -13 5 -10 10 3 6 1 10 -5 10 -6 0 -8 5 -4 12 5 7 3 8 -5
4 -7 -5 -19 0 -27 10 -15 18 -15 18 -10 -1 6 -19 5 -19 -8 -2 -10 14 -15 15
-19 5 -4 -10 -8 -10 -16 2 -9 13 -11 13 -11 -2 0 -12 -5 -15 -17 -11 -12 5
-15 2 -10 -10 6 -15 -3 -22 -25 -18 -4 0 -5 -5 -2 -12 5 -13 -65 -84 -78 -80
-5 2 -7 -3 -5 -10 1 -6 -3 -11 -10 -10 -8 2 -10 -4 -6 -15 3 -9 3 -14 -1 -10
-10 8 -36 -14 -29 -24 4 -8 -12 -12 -30 -9 -5 1 -5 -3 -2 -10 8 -12 -29 -51
-39 -42 -3 4 -6 0 -6 -8 0 -16 -60 -74 -73 -71 -5 1 -6 -2 -2 -8 3 -5 1 -10
-5 -10 -6 0 -8 -4 -5 -10 3 -5 -1 -10 -9 -10 -8 0 -18 -9 -21 -20 -4 -11 -11
-17 -17 -14 -8 5 -9 1 -5 -10 4 -9 3 -15 -1 -12 -10 6 -42 -29 -42 -47 0 -8
-4 -7 -10 3 -8 13 -10 12 -10 -2 0 -10 -8 -18 -17 -19 -10 0 -13 -3 -6 -6 10
-3 10 -7 0 -18 -7 -7 -15 -11 -19 -8 -5 2 -8 -3 -8 -12 0 -11 -5 -15 -14 -12
-10 4 -13 1 -9 -9 3 -9 -1 -14 -12 -14 -9 0 -13 -4 -10 -10 3 -5 1 -10 -5 -10
-6 0 -8 -4 -5 -10 3 -5 1 -10 -4 -10 -15 0 -51 -37 -44 -44 4 -3 -1 -6 -11 -6
-9 0 -15 -4 -11 -9 3 -5 -4 -13 -16 -16 -11 -4 -18 -9 -15 -12 3 -4 -14 -25
-39 -48 -24 -23 -41 -45 -38 -49 3 -3 -1 -6 -10 -6 -9 0 -17 -5 -17 -11 0 -5
-4 -7 -10 -4 -6 4 -7 -1 -3 -11 4 -11 3 -15 -5 -10 -6 3 -13 -3 -17 -14 -4
-11 -10 -18 -15 -15 -4 3 -10 -5 -13 -16 -3 -12 -10 -18 -16 -14 -6 3 -11 -1
-11 -9 0 -9 -5 -16 -11 -16 -5 0 -8 -4 -4 -9 3 -5 -4 -12 -14 -16 -11 -3 -23
-15 -26 -26 -6 -17 -17 -24 -38 -20 -5 1 -6 -3 -2 -9 8 -13 -50 -72 -60 -62
-5 4 -5 2 -2 -4 8 -15 -18 -38 -33 -29 -6 4 -10 3 -9 -2 2 -16 -13 -53 -21
-48 -4 3 -11 -7 -14 -20 -4 -14 -11 -23 -16 -20 -6 4 -13 -1 -16 -9 -3 -9 -10
-14 -14 -11 -4 3 -11 -6 -14 -20 -4 -14 -10 -24 -14 -22 -7 2 -52 -39 -52 -48
0 -3 -1 -4 -3 -2 -6 4 -37 -31 -37 -42 0 -6 -3 -10 -7 -10 -20 3 -26 -2 -13
-11 11 -7 12 -10 2 -10 -17 0 -81 -67 -73 -76 3 -4 -2 -4 -11 -1 -11 4 -15 2
-12 -7 6 -16 -31 -50 -45 -41 -7 3 -8 0 -5 -9 4 -10 1 -16 -10 -16 -10 0 -13
-5 -9 -17 4 -10 2 -14 -5 -9 -6 3 -16 -3 -22 -14 -6 -11 -16 -17 -22 -14 -7 4
-8 3 -4 -4 4 -7 2 -12 -4 -12 -6 0 -9 -4 -5 -9 3 -5 -4 -13 -16 -16 -11 -4
-18 -9 -15 -12 7 -7 -17 -32 -26 -26 -5 2 -8 -1 -8 -8 0 -6 -11 -22 -26 -35
-14 -13 -20 -24 -14 -24 6 0 8 -5 4 -11 -4 -8 0 -8 15 0 13 8 21 8 21 2 0 -7
8 -7 23 -2 13 5 30 5 37 1 8 -5 19 -6 25 -2 16 10 35 11 35 1 0 -5 11 -4 25 1
17 7 25 6 25 -1 0 -8 4 -8 13 -1 18 15 29 15 37 2 5 -8 13 -9 21 -4 20 12 39
14 39 3 0 -6 8 -5 20 1 13 7 20 7 20 1 0 -7 8 -7 23 -2 12 5 32 5 45 0 20 -8
22 -14 18 -49 -3 -27 -1 -40 7 -40 8 0 8 -3 2 -8 -15 -11 -17 -52 -2 -52 7 0
8 -3 2 -8 -5 -4 -10 -20 -10 -37 0 -16 5 -33 10 -37 6 -5 5 -8 -3 -8 -14 0
-12 -21 3 -32 6 -5 5 -8 -4 -8 -11 0 -11 -3 -1 -15 7 -8 8 -15 3 -15 -5 0 -9
-9 -10 -20 -1 -11 4 -20 10 -20 8 0 8 -3 2 -8 -14 -10 -14 -65 -1 -74 8 -6 8
-8 0 -8 -14 0 -14 -30 0 -30 6 0 5 -4 -2 -9 -8 -4 -14 -12 -14 -16 0 -4 6 -12
14 -16 7 -5 9 -9 3 -9 -14 0 -15 -50 -1 -50 7 0 7 -3 1 -8 -15 -11 -17 -52 -2
-52 7 0 8 -3 2 -8 -14 -10 -16 -45 -2 -54 9 -6 8 -8 -2 -8 -9 0 -7 -6 7 -19
23 -19 30 -37 10 -25 -7 4 -8 3 -4 -5 4 -6 11 -9 16 -6 5 3 11 1 15 -5 4 -6
12 -7 18 -4 7 4 9 4 5 -1 -11 -12 11 -35 28 -28 8 3 14 -1 15 -8 0 -8 4 -5 9
6 7 17 9 17 9 3 1 -12 9 -18 25 -18 13 0 32 -3 42 -7 13 -5 15 -3 9 7 -6 10
-4 11 6 4 19 -11 60 -14 78 -4 8 4 27 4 44 -1 23 -6 27 -6 18 5 -8 10 -4 12
19 11 17 -1 30 2 30 7 0 5 5 6 10 3 6 -3 10 0 10 7 0 10 2 10 9 -1 7 -11 10
-9 16 8 3 12 9 20 13 17 4 -2 18 8 32 22 14 13 20 22 13 18 -7 -4 -11 1 -10
14 1 11 6 20 12 20 5 0 4 4 -4 9 -9 6 -10 11 -2 15 7 5 7 15 1 31 -7 18 -6 25
3 25 8 0 8 3 -2 9 -8 5 -10 14 -5 22 10 17 10 51 0 67 -4 7 -2 12 6 12 8 0 9
3 3 8 -5 4 -10 14 -10 22 0 8 5 18 10 22 6 5 4 8 -5 8 -10 0 -11 3 -3 11 8 8
8 20 3 35 -7 17 -6 24 3 24 8 0 8 3 -2 9 -8 5 -10 14 -5 22 10 17 10 51 0 67
-4 7 -2 12 6 12 8 0 9 3 3 8 -5 4 -10 14 -10 22 0 8 5 18 10 22 6 5 4 8 -5 8
-10 0 -11 3 -3 11 8 8 8 20 3 35 -7 17 -6 24 3 24 8 0 8 3 -2 9 -8 5 -10 14
-5 22 10 17 10 46 0 77 -6 19 -10 21 -22 11 -10 -9 -14 -9 -14 0 0 9 -5 9 -21
0 -16 -8 -23 -8 -29 1 -6 9 -13 9 -29 1 -11 -7 -21 -8 -21 -3 0 10 -36 9 -46
-1 -4 -4 -13 -2 -21 4 -10 9 -13 8 -13 -2 0 -11 -2 -11 -10 1 -7 11 -10 11
-10 2 0 -10 -3 -10 -14 0 -14 14 -10 42 5 32 5 -3 9 0 9 6 0 6 5 8 12 4 8 -5
9 -2 4 12 -4 10 -4 15 0 12 8 -9 34 16 34 32 0 7 7 9 16 6 8 -3 12 -2 9 4 -3
6 -1 10 6 10 7 0 10 3 7 6 -8 8 37 54 53 54 11 0 11 2 -1 10 -13 8 -13 10 -1
10 19 0 93 79 85 91 -3 5 0 8 8 7 7 -2 12 3 10 11 -3 12 -1 12 14 0 12 -9 15
-9 10 -1 -4 7 -2 12 4 12 6 0 8 5 5 10 -3 6 1 10 9 10 10 0 13 6 9 17 -4 9 -2
14 3 10 6 -3 18 5 28 18 10 14 23 22 29 18 6 -3 7 -1 3 5 -4 7 -2 12 4 12 7 0
10 7 6 15 -3 8 -2 14 2 14 20 -3 33 2 27 11 -3 6 2 10 11 10 10 0 15 3 11 6
-7 7 17 34 31 34 5 0 12 9 15 21 3 12 10 18 17 14 6 -3 9 -2 8 4 -2 5 6 17 17
26 11 9 13 13 5 9 -13 -7 -13 -5 -1 9 15 19 36 23 25 5 -4 -7 -3 -8 4 -4 6 4
9 13 5 21 -3 10 1 15 13 15 9 0 15 3 12 6 -7 7 34 50 44 47 4 -2 5 4 2 12 -5
11 -2 13 12 8 12 -4 15 -3 10 5 -4 7 -2 12 4 12 6 0 8 5 5 10 -3 6 -1 10 5 10
6 0 8 5 4 13 -5 7 0 6 11 -3 11 -9 16 -10 11 -2 -4 7 -2 12 5 12 7 0 10 3 7 6
-9 8 45 62 56 56 5 -3 6 0 3 5 -4 6 4 19 18 29 13 10 21 22 18 28 -4 5 1 7 10
3 11 -4 14 -2 11 7 -3 7 11 25 31 40 19 15 32 32 29 38 -4 7 -2 8 4 4 7 -4 12
-1 12 8 0 10 6 13 18 9 9 -3 14 -3 10 2 -4 4 -1 14 7 22 17 16 59 27 50 12 -4
-5 -11 -6 -17 -3 -7 4 -8 2 -4 -4 4 -6 14 -8 24 -5 9 3 14 3 10 -1 -7 -9 27
-46 42 -46 6 0 10 -9 10 -21 0 -11 4 -18 9 -15 5 3 23 -12 42 -34 18 -21 37
-36 41 -34 8 5 12 -11 9 -30 -1 -5 5 -6 14 -3 9 4 15 1 15 -8 0 -8 7 -15 16
-15 8 0 12 -5 9 -11 -4 -6 2 -13 13 -16 13 -3 19 -10 15 -19 -3 -8 -1 -14 3
-12 17 5 57 -40 48 -54 -6 -10 -4 -10 9 1 15 12 17 11 17 -3 0 -9 7 -19 15
-22 8 -3 17 -14 20 -25 4 -10 15 -19 25 -19 14 0 18 -5 13 -17 -4 -10 -2 -14
5 -9 6 3 13 -3 17 -15 4 -11 9 -18 12 -16 6 6 53 -41 53 -53 0 -6 6 -10 13
-10 17 0 49 -39 42 -51 -4 -5 -3 -9 2 -8 4 1 17 1 28 0 15 -1 17 -3 6 -10 -11
-7 -10 -10 6 -15 11 -4 26 -17 33 -31 7 -13 17 -22 22 -19 4 3 8 -2 8 -10 0
-9 5 -15 12 -14 6 2 17 -7 23 -20 7 -12 16 -26 20 -30 5 -4 5 0 0 8 -5 8 4 4
18 -9 15 -14 27 -30 27 -37 0 -7 9 -16 20 -19 11 -4 18 -11 15 -16 -4 -5 1 -9
9 -9 9 0 16 -5 16 -11 0 -14 26 -39 40 -39 7 0 10 -7 6 -15 -3 -8 0 -14 7 -12
7 1 10 -5 9 -13 -2 -8 0 -12 3 -8 10 10 45 -10 45 -26 0 -17 35 -48 43 -39 4
3 7 -1 7 -10 0 -9 6 -17 14 -17 9 0 12 -7 9 -21 -3 -11 -9 -17 -12 -12 -7 10
-32 10 -48 0 -8 -5 -13 -3 -13 4 0 8 -4 8 -15 -1 -12 -10 -15 -10 -15 0 0 10
-3 10 -15 0 -8 -7 -15 -8 -15 -3 0 11 -36 11 -46 0 -4 -3 -15 -2 -25 3 -12 7
-20 6 -25 -1 -4 -8 -9 -7 -15 2 -7 11 -9 11 -9 1 0 -7 -4 -11 -9 -8 -5 3 -11
-3 -14 -14 -3 -11 -1 -22 4 -25 10 -7 6 -95 -6 -116 -7 -12 -6 -11 10 1 15 12
17 12 10 1 -4 -8 -8 -28 -7 -45 0 -17 -3 -35 -8 -41 -10 -11 -7 -46 5 -65 3
-6 1 -10 -6 -10 -7 0 -10 -13 -7 -34 2 -21 0 -32 -6 -29 -5 4 -7 -1 -3 -9 3
-9 0 -21 -6 -27 -8 -8 -8 -11 1 -11 9 0 10 -5 4 -17 -5 -10 -7 -24 -4 -32 3
-10 0 -12 -11 -8 -11 4 -14 2 -10 -8 3 -8 10 -12 17 -8 6 3 2 -4 -9 -17 -12
-14 -14 -20 -5 -15 13 8 13 7 1 -8 -8 -10 -11 -20 -7 -24 3 -3 -2 -15 -11 -26
-10 -11 -12 -17 -6 -13 9 5 11 2 7 -8 -3 -9 -11 -13 -16 -10 -6 4 -5 -2 1 -14
7 -14 8 -23 1 -27 -6 -4 -8 -11 -5 -16 6 -8 -9 -13 -28 -10 -5 1 -6 -3 -2 -9
3 -6 11 -7 17 -4 5 4 2 -5 -7 -19 -9 -15 -14 -30 -11 -36 3 -5 -1 -11 -9 -15
-8 -3 -15 -10 -15 -16 0 -6 6 -8 13 -5 6 4 5 1 -4 -7 -9 -7 -15 -21 -13 -30 1
-10 -3 -21 -8 -25 -7 -3 -8 -1 -4 5 4 7 2 12 -4 12 -6 0 -10 -10 -8 -23 2 -14
-2 -21 -10 -19 -8 1 -11 -2 -7 -8 3 -5 0 -10 -7 -10 -10 0 -10 -2 1 -9 11 -7
10 -11 -5 -19 -11 -6 -19 -14 -19 -19 0 -4 -4 -7 -8 -5 -5 1 -5 -3 -1 -9 3 -6
0 -15 -7 -20 -11 -7 -11 -9 -1 -9 8 0 6 -8 -7 -22 -11 -11 -18 -26 -14 -31 3
-6 1 -7 -5 -3 -7 4 -12 2 -12 -5 0 -6 -8 -18 -17 -26 -12 -9 -13 -12 -3 -8 8
4 4 -3 -10 -15 -14 -12 -18 -19 -10 -15 10 4 9 1 -2 -8 -10 -8 -18 -20 -18
-26 0 -7 -5 -9 -12 -5 -8 5 -9 2 -5 -9 3 -9 3 -16 -1 -14 -4 1 -8 -2 -9 -6 -1
-5 -11 -17 -22 -26 -11 -10 -18 -21 -14 -25 3 -3 -1 -6 -10 -6 -10 0 -17 -6
-17 -13 0 -15 -51 -63 -62 -59 -5 1 -7 -3 -5 -9 2 -9 -14 -22 -41 -36 -2 0 -5
-9 -6 -20 -2 -10 -7 -17 -12 -16 -17 2 -44 -18 -44 -33 0 -8 -4 -12 -10 -9 -5
3 -10 -1 -10 -9 0 -10 -6 -13 -15 -10 -10 4 -15 0 -15 -11 0 -9 -4 -14 -9 -11
-5 3 -12 -1 -15 -10 -3 -8 -10 -12 -16 -9 -5 3 -10 1 -10 -5 0 -6 -5 -8 -12
-4 -6 4 -8 3 -5 -3 4 -6 -1 -17 -10 -24 -14 -12 -16 -12 -8 1 5 8 -5 2 -20
-13 -16 -16 -38 -33 -50 -38 -20 -10 -20 -10 -1 5 11 9 15 16 10 16 -5 0 -21
-14 -36 -30 -17 -19 -32 -28 -42 -24 -11 4 -19 -2 -25 -17 -6 -14 -10 -17 -11
-9 0 12 -3 12 -14 -2 -7 -10 -16 -15 -19 -11 -4 3 -7 1 -7 -6 0 -6 -8 -11 -17
-9 -10 2 -17 -2 -16 -9 2 -7 -6 -10 -18 -8 -12 2 -22 -2 -26 -11 -5 -13 -7
-13 -14 -2 -7 10 -9 11 -9 0 0 -7 -4 -11 -9 -8 -5 3 -12 -2 -15 -11 -6 -15 -8
-15 -16 -3 -7 10 -10 11 -10 3 0 -7 -7 -13 -16 -13 -8 0 -12 -5 -8 -11 5 -8 1
-8 -14 0 -16 8 -23 8 -29 -1 -4 -7 -15 -13 -23 -13 -8 0 -14 -6 -12 -13 1 -8
-2 -11 -8 -7 -6 3 -8 11 -5 16 4 5 1 9 -4 9 -6 0 -11 -6 -11 -14 0 -8 -9 -12
-25 -11 -14 2 -25 -2 -25 -8 0 -7 -4 -6 -10 3 -8 13 -11 13 -22 1 -9 -10 -10
-12 -1 -7 9 5 11 2 7 -9 -5 -12 -9 -13 -20 -4 -11 9 -18 8 -31 -2 -15 -12 -16
-12 -8 1 6 11 3 10 -12 -3 -11 -9 -23 -14 -26 -10 -4 3 -22 7 -41 8 -27 1 -33
-2 -28 -14 5 -14 4 -14 -13 -1 -10 8 -16 10 -12 3 4 -6 3 -14 -3 -18 -5 -3
-10 1 -10 9 0 10 -7 13 -22 9 -13 -3 -38 -6 -55 -7 -18 -1 -33 -5 -33 -9 0 -5
-5 -5 -10 -2 -14 8 -186 9 -199 1 -5 -4 -12 -2 -16 4 -4 6 -12 7 -18 3 -7 -4
-6 1 2 10 12 15 12 17 -3 11 -9 -3 -16 -9 -16 -13 0 -4 -8 -7 -19 -7 -10 0
-17 5 -14 11 2 8 -7 10 -28 7 -25 -4 -30 -2 -24 9 6 11 5 12 -6 2 -16 -15 -33
-17 -24 -3 8 13 -1 13 -27 -1 -12 -7 -18 -7 -14 -1 3 6 -8 15 -24 21 -24 8
-29 7 -23 -2 5 -9 3 -9 -8 -1 -8 6 -26 11 -40 10 -19 -1 -25 2 -21 12 4 12 1
12 -19 2 -21 -12 -22 -11 -12 1 10 12 6 15 -23 14 -20 -1 -38 4 -42 12 -4 7
-22 15 -40 17 -18 2 -40 12 -48 22 -9 11 -13 13 -9 7 4 -9 1 -11 -9 -7 -9 3
-13 11 -10 16 4 6 -3 5 -15 -1 -12 -7 -21 -8 -20 -4 1 4 1 15 0 23 -1 13 -2
13 -11 0 -6 -10 -10 -11 -10 -2 0 6 -7 12 -16 12 -8 0 -13 4 -10 9 3 4 -6 7
-19 5 -19 -2 -25 2 -25 18 0 18 -2 19 -17 7 -11 -10 -14 -10 -9 -1 4 7 1 12
-9 12 -9 0 -13 4 -10 10 3 6 -1 7 -9 4 -9 -3 -16 -1 -16 5 0 6 -5 11 -11 11
-6 0 -17 7 -26 15 -8 8 -19 13 -24 10 -5 -4 -9 1 -9 9 0 8 -5 18 -12 22 -7 5
-8 3 -3 -5 5 -9 2 -9 -13 0 -12 7 -19 15 -16 18 2 2 -17 17 -43 33 -27 15 -44
28 -40 28 12 0 -15 25 -35 33 -10 3 -18 14 -18 23 0 10 -3 15 -6 12 -7 -7 -54
39 -54 53 0 6 -5 7 -12 3 -8 -5 -9 -2 -5 10 4 9 3 15 -2 12 -13 -8 -42 17 -45
39 -2 11 -8 21 -14 21 -7 1 -16 2 -22 3 -5 0 -6 8 -3 18 4 11 3 14 -5 9 -7 -4
-12 -1 -12 9 0 10 -5 13 -12 9 -7 -4 -8 -3 -4 4 6 10 -9 30 -66 93 -20 22 -24
34 -6 23 7 -4 8 -3 4 4 -4 7 -15 12 -24 12 -13 0 -14 2 -4 9 11 7 11 9 -2 14
-9 4 -13 13 -10 22 4 10 2 15 -7 13 -8 -2 -13 3 -11 10 1 6 -3 12 -9 12 -5 0
-8 4 -5 9 3 5 -1 11 -9 14 -8 4 -12 15 -10 26 2 11 -1 24 -7 27 -7 5 -8 2 -3
-6 6 -9 4 -11 -4 -5 -7 4 -11 16 -8 26 3 11 -1 23 -10 27 -8 5 -15 15 -17 23
-1 8 -7 23 -13 34 -5 11 -8 26 -5 34 3 8 0 11 -7 7 -7 -5 -11 2 -11 19 0 17
-4 24 -12 19 -7 -4 -8 -3 -4 5 4 6 1 22 -7 35 -11 16 -12 27 -5 40 8 15 8 17
-2 11 -10 -6 -12 -4 -7 8 3 9 1 19 -5 23 -7 5 -8 2 -3 -6 5 -9 4 -11 -3 -6 -8
5 -9 13 -2 25 5 10 6 22 2 26 -4 3 -7 12 -7 18 -1 7 -7 11 -15 9 -11 -3 -11
-1 0 13 9 11 10 19 3 23 -5 4 -10 25 -11 46 -1 22 -7 43 -14 48 -10 6 -9 8 2
8 12 0 13 2 1 9 -11 7 -11 9 0 14 10 4 10 6 2 6 -7 1 -13 6 -13 12 0 5 5 7 12
3 6 -4 4 3 -5 17 -20 28 -22 43 -4 33 8 -5 8 -2 -2 9 -10 13 -10 17 -1 17 9 0
9 4 2 13 -17 21 -18 23 -2 42 8 11 10 16 4 12 -7 -4 -15 0 -18 9 -3 8 -2 12 4
9 5 -3 8 20 6 60 -3 44 -1 63 7 58 6 -4 7 -1 2 7 -14 23 -12 90 3 90 7 0 10 5
7 10 -4 6 -12 8 -18 4 -7 -3 -3 2 7 10 18 15 15 20 -9 17 -5 -1 -1 6 10 14 17
14 18 17 5 25 -12 8 -12 10 -1 10 7 0 11 6 7 15 -3 8 0 15 7 15 9 0 8 3 -1 9
-11 6 -10 10 4 15 16 6 16 8 -2 21 -11 9 -13 14 -5 13 7 -2 16 3 19 11 2 8 0
11 -5 8 -5 -3 -9 3 -9 13 0 14 4 16 13 9 9 -8 11 -6 8 10 -2 12 1 21 8 21 8 0
8 3 -1 9 -10 6 -10 10 2 21 9 7 13 16 10 22 -3 5 0 16 8 25 9 12 9 15 1 9 -9
-5 -11 -2 -7 8 3 9 10 14 14 11 5 -3 6 4 3 15 -3 13 0 20 8 20 11 0 11 2 -1
10 -13 8 -13 10 1 10 9 0 16 8 16 18 0 36 3 43 16 36 7 -5 7 -2 -2 10 -12 14
-12 17 -1 14 9 -2 14 6 14 22 1 14 6 25 13 25 6 0 15 4 20 9 5 5 3 6 -4 2 -15
-9 -18 10 -3 19 6 4 8 11 5 16 -4 5 -1 9 4 9 6 0 11 7 11 15 0 8 5 15 11 15 6
0 9 7 5 15 -3 8 -1 15 4 15 5 0 12 9 15 20 4 12 11 17 18 13 7 -4 5 2 -3 12
-9 11 -10 16 -2 11 6 -4 12 -2 12 4 0 6 9 21 20 33 11 12 18 27 15 35 -2 7 -1
11 3 8 5 -3 16 8 26 25 9 16 22 29 28 29 5 0 7 7 4 16 -3 8 -2 12 4 9 11 -7
32 29 22 40 -4 5 1 5 11 2 11 -4 17 -1 17 9 0 8 7 17 16 21 8 3 13 12 10 19
-3 8 0 11 9 8 8 -3 16 3 20 15 3 12 11 19 16 16 5 -4 9 3 9 14 0 19 10 26 33
22 4 0 7 8 7 18 0 11 9 23 20 26 11 3 20 11 20 17 0 6 3 9 6 6 7 -8 60 42 57
53 -2 4 5 5 14 2 11 -4 14 -3 9 5 -4 7 -1 12 8 12 9 0 16 5 16 11 0 5 4 8 9 5
5 -3 15 2 22 11 12 14 12 16 0 8 -10 -5 -12 -4 -7 4 4 6 11 9 15 6 10 -5 100
50 119 74 8 9 10 10 6 2 -5 -9 2 -7 18 5 14 10 23 24 20 29 -3 6 1 5 9 -2 11
-9 18 -8 31 1 10 7 15 16 11 19 -6 6 0 8 40 11 6 1 25 14 41 31 29 29 29 29
23 5 -5 -22 -5 -23 7 -8 7 10 16 15 19 11 4 -3 7 -2 7 4 0 6 7 14 16 17 8 3
13 2 10 -3 -4 -5 5 -4 18 2 13 7 22 15 20 19 -3 4 5 5 17 3 13 -3 27 -1 33 4
11 9 17 11 37 11 5 0 7 5 4 10 -8 13 1 13 27 -1 16 -9 19 -8 13 2 -6 9 -3 11
8 6 10 -3 17 -2 17 3 0 6 5 10 11 10 5 0 7 -6 4 -12 -4 -7 3 -2 15 12 14 16
20 19 16 8 -3 -12 -1 -15 9 -11 8 3 13 8 10 12 -2 4 2 8 10 8 8 0 12 -5 8 -10
-3 -5 4 -4 15 2 12 6 25 11 29 10 22 -4 34 2 27 14 -5 8 -2 8 9 -2 13 -10 20
-11 31 -2 8 7 17 8 20 3 8 -14 56 -8 66 8 7 10 10 11 10 3 0 -7 5 -13 11 -13
5 0 8 3 6 8 -6 9 120 8 129 -1 4 -4 13 1 21 11 8 9 12 11 8 5 -4 -9 -1 -11 9
-7 9 3 13 10 10 15 -3 5 1 9 9 9 8 0 17 9 20 21 3 12 10 18 16 14 7 -3 8 0 5
9 -3 9 -1 16 5 16 6 0 8 7 4 17 -4 9 -2 14 3 10 5 -3 10 9 11 26 1 18 4 43 6
57 2 14 -2 31 -7 39 -8 11 -8 13 1 8 8 -5 11 1 9 18 -1 14 -6 28 -9 32 -4 3
-2 12 4 19 7 8 7 14 -1 19 -5 3 -10 1 -10 -6 0 -7 -3 -9 -6 -6 -4 4 -2 13 5
21 9 11 8 15 -4 20 -9 3 -15 11 -14 18 3 27 -1 39 -12 32 -7 -4 -10 -1 -7 7 6
18 -13 38 -30 32 -8 -4 -10 0 -6 11 5 14 -8 16 -124 16 -95 0 -132 -3 -135
-12 -4 -10 -6 -9 -6 1 -1 11 -4 11 -18 0 -11 -10 -14 -10 -9 -1 11 18 -5 14
-20 -5 -12 -16 -13 -16 -8 -1 6 17 -18 20 -33 3 -4 -4 -2 -5 4 -1 9 5 11 2 7
-8 -5 -13 -9 -13 -23 5 -12 16 -19 17 -28 8z m17 -8 c0 -5 -7 -12 -16 -15 -14
-5 -15 -4 -4 9 14 17 20 19 20 6z m144 -459 c3 -5 -1 -9 -9 -9 -8 0 -12 4 -9
9 3 4 7 8 9 8 2 0 6 -4 9 -8z m-735 -255 c-2 -1 -13 -9 -24 -17 -19 -14 -19
-14 -6 3 7 9 18 17 24 17 6 0 8 -1 6 -3z m-1169 -881 c0 -2 -8 -10 -17 -17
-16 -13 -17 -12 -4 4 13 16 21 21 21 13z m3950 -336 c0 -5 -2 -10 -4 -10 -3 0
-8 5 -11 10 -3 6 -1 10 4 10 6 0 11 -4 11 -10z m245 -400 c-3 -5 -12 -10 -18
-10 -7 0 -6 4 3 10 19 12 23 12 15 0z m-3561 -1439 c-2 -3 -12 3 -22 13 -16
17 -16 18 5 5 12 -7 20 -15 17 -18z m116 -91 c0 -5 -2 -10 -4 -10 -3 0 -8 5
-11 10 -3 6 -1 10 4 10 6 0 11 -4 11 -10z m2390 -154 c0 -2 -8 -10 -17 -17
-16 -13 -17 -12 -4 4 13 16 21 21 21 13z"/>
<path d="M1779 2953 c-13 -16 -12 -17 4 -4 9 7 17 15 17 17 0 8 -8 3 -21 -13z"/>
<path d="M4895 2770 c3 -5 8 -10 11 -10 2 0 4 5 4 10 0 6 -5 10 -11 10 -5 0
-7 -4 -4 -10z"/>
<path d="M180 2140 c0 -5 5 -10 11 -10 5 0 7 5 4 10 -3 6 -8 10 -11 10 -2 0
-4 -4 -4 -10z"/>
</g>
</svg>
